<?xml version="1.0" encoding="UTF-8"?>
<!DOCTYPE svg PUBLIC "-//W3C//DTD SVG 1.1//EN" "http://www.w3.org/Graphics/SVG/1.1/DTD/svg11.dtd">
<!-- Creator: CorelDRAW 2018 -->
<svg xmlns="http://www.w3.org/2000/svg" xml:space="preserve" width="55px" height="55px" version="1.1" style="shape-rendering:geometricPrecision; text-rendering:geometricPrecision; image-rendering:optimizeQuality; fill-rule:evenodd; clip-rule:evenodd"
viewBox="0 0 55 55"
 xmlns:xlink="http://www.w3.org/1999/xlink">
 <defs>
  <style type="text/css">
   <![CDATA[
    .fil0 {fill:#BF0404}
    .fil1 {fill:white}
   ]]>
  </style>
 </defs>
 <g id="Layer_x0020_1">
  <metadata id="CorelCorpID_0Corel-Layer"/>
  <g id="_88118168">
   <path class="fil0" d="M30.76 17.34l3.39 17.62 6.08 -17.74c0.32,-0.94 0.56,-1.59 0.71,-1.95 0.15,-0.37 0.38,-0.69 0.68,-0.99 0.31,-0.28 0.69,-0.43 1.17,-0.44 0.03,0 0.06,0 0.09,0l2.04 0c0.83,0 1.52,0.68 1.52,1.52l0 0c0,0.84 -0.69,1.52 -1.52,1.52l-0.38 0 0 0 -1.83 0c-0.84,0 -1.52,0.69 -1.52,1.52l0 0c0,0.84 0.68,1.52 1.52,1.52l0.81 0c0.65,0.17 1.13,0.77 1.13,1.47l0 0c0,0.84 -0.68,1.52 -1.52,1.52l-0.06 0 -0.68 0 -1.76 0c-0.83,0 -1.52,0.68 -1.52,1.52l0 0c0,0.83 0.69,1.52 1.52,1.52l1.33 0c0.63,0.18 1.1,0.77 1.1,1.46l0 0c0,0.84 -0.68,1.52 -1.52,1.52l-1.38 0 0 0 -1.39 0c-0.84,0 -1.52,0.68 -1.52,1.52l0 0c0,0.83 0.68,1.52 1.52,1.52l1.01 0c0.67,0.15 1.18,0.76 1.18,1.48l0 0c0,0.8 -0.63,1.47 -1.43,1.52l-2.35 0c-0.84,0 -1.52,0.68 -1.52,1.51l0 0c0,0.72 0.5,1.32 1.16,1.48l0 0.02 0.08 0c0.09,0.02 0.18,0.02 0.28,0.02l1.08 0c0.7,0.14 1.24,0.76 1.24,1.5l0 0c0,0.83 -0.68,1.52 -1.52,1.52l-4.39 0 -0.04 0c-0.03,0 -0.05,0 -0.08,0 -0.52,-0.02 -0.95,-0.16 -1.3,-0.42 -0.37,-0.29 -0.66,-0.65 -0.87,-1.11 -0.2,-0.47 -0.37,-0.99 -0.51,-1.58 -0.14,-0.58 -0.27,-1.2 -0.4,-1.86l-3.68 -17.03c-0.06,-0.3 -0.13,-0.61 -0.19,-0.91 -0.07,-0.3 -0.12,-0.62 -0.16,-0.97 -0.03,-0.35 -0.04,-0.64 -0.02,-0.88 0.04,-0.6 0.28,-1.16 0.71,-1.66 0.43,-0.51 0.94,-0.76 1.52,-0.76 0.72,0 1.21,0.28 1.47,0.84 0.26,0.55 0.5,1.44 0.72,2.66zm16.61 14.59l3.79 0c0.84,0 1.52,0.68 1.52,1.52l0 0c0,0.84 -0.68,1.52 -1.52,1.52l-3.79 0c-0.83,0 -1.52,-0.68 -1.52,-1.52l0 0c0,-0.84 0.69,-1.52 1.52,-1.52zm1.71 -6.04l0.07 0c0.83,0 1.52,0.68 1.52,1.52l0 0c0,0.84 -0.69,1.52 -1.52,1.52l-0.07 0c-0.83,0 -1.52,-0.68 -1.52,-1.52l0 0c0,-0.84 0.69,-1.52 1.52,-1.52zm-7.43 12.09l2.93 0c0.83,0 1.52,0.68 1.52,1.52l0 0c0,0.83 -0.69,1.52 -1.52,1.52l-2.93 0c-0.84,0 -1.52,-0.69 -1.52,-1.52l0 0c0,-0.84 0.68,-1.52 1.52,-1.52zm1.76 -6.03l0.04 0c0.83,0 1.52,0.68 1.52,1.52l0 0c0,0.83 -0.69,1.52 -1.52,1.52l-0.04 0c-0.83,0 -1.52,-0.69 -1.52,-1.52l0 0c0,-0.84 0.69,-1.52 1.52,-1.52zm4.92 6.03l4.65 0c0.84,0 1.52,0.68 1.52,1.52l0 0c0,0.83 -0.68,1.52 -1.52,1.52l-4.65 0c-0.84,0 -1.52,-0.69 -1.52,-1.52l0 0c0,-0.84 0.68,-1.52 1.52,-1.52zm-3.1 -12.09l0.06 0c0.84,0 1.52,0.68 1.52,1.52l0 0c0,0.84 -0.68,1.52 -1.52,1.52l-0.06 0c-0.84,0 -1.52,-0.68 -1.52,-1.52l0 0c0,-0.84 0.68,-1.52 1.52,-1.52zm1.66 -6.02l0.03 0c0.84,0 1.52,0.69 1.52,1.52l0 0c0,0.84 -0.68,1.52 -1.52,1.52l-0.03 0c-0.84,0 -1.52,-0.68 -1.52,-1.52l0 0c0,-0.83 0.68,-1.52 1.52,-1.52z"/>
   <path class="fil1" d="M15.26 36.43l-2.18 -15.76 -4.62 15.76c-0.35,1.2 -0.63,2.05 -0.82,2.57 -0.2,0.52 -0.51,0.99 -0.93,1.4 -0.42,0.41 -0.95,0.62 -1.6,0.62 -0.52,0 -0.94,-0.12 -1.26,-0.37 -0.32,-0.25 -0.57,-0.59 -0.74,-1.04 -0.18,-0.45 -0.31,-0.98 -0.39,-1.6 -0.09,-0.61 -0.17,-1.18 -0.23,-1.71l-2.13 -17.69c-0.14,-1.03 -0.18,-1.81 -0.14,-2.35 0.05,-0.68 0.28,-1.26 0.7,-1.72 0.41,-0.47 0.9,-0.7 1.46,-0.7 0.77,0 1.27,0.31 1.49,0.93 0.21,0.63 0.38,1.53 0.49,2.71l1.57 15.35 4.15 -14.36c0.32,-1.1 0.58,-1.94 0.81,-2.51 0.22,-0.58 0.56,-1.07 1,-1.49 0.44,-0.42 1.01,-0.63 1.71,-0.63 0.71,0 1.25,0.22 1.61,0.66 0.36,0.43 0.6,0.91 0.71,1.42 0.11,0.52 0.25,1.36 0.42,2.55l2 14.36 3.91 -15.35c0.19,-0.8 0.36,-1.43 0.51,-1.88 0.16,-0.46 0.39,-0.87 0.71,-1.22 0.32,-0.36 0.75,-0.54 1.3,-0.54l0.04 0 0.03 0 3.89 0c0.83,0 1.52,0.69 1.52,1.52l0 0c0,0.84 -0.69,1.52 -1.52,1.52l-2.24 0 0 0 -0.56 0c-0.83,0 -1.52,0.69 -1.52,1.52l0 0c0,0.8 0.63,1.46 1.42,1.52 0.66,0.16 1.15,0.76 1.15,1.47l0 0c0,0.84 -0.69,1.52 -1.52,1.52l-0.55 0 -0.54 0c-0.84,0 -1.52,0.68 -1.52,1.52l0 0c0,0.83 0.68,1.52 1.52,1.52l0.55 0c0.64,0.18 1.11,0.77 1.11,1.46l0 0c0,0.84 -0.69,1.52 -1.52,1.52l-1.24 0 0 0 -0.74 0c-0.84,0 -1.52,0.68 -1.52,1.52l0 0c0,0.83 0.68,1.52 1.52,1.52l0.1 0c0.67,0.15 1.18,0.76 1.18,1.48l0 0c0,0.82 -0.65,1.49 -1.46,1.52 -0.03,0 -0.05,0 -0.08,0l-1.5 0c-0.84,0 -1.52,0.68 -1.52,1.51l0 0c0,0.84 0.68,1.52 1.52,1.52l0.07 0c0.7,0.14 1.24,0.76 1.24,1.5l0 0c0,0.83 -0.68,1.52 -1.52,1.52l-2.64 0 -0.07 0c-0.06,0 -0.12,-0.01 -0.18,-0.01 -0.53,-0.05 -0.94,-0.25 -1.25,-0.61 -0.36,-0.4 -0.6,-0.86 -0.71,-1.37 -0.12,-0.5 -0.26,-1.37 -0.45,-2.6zm8.9 1.55l1.48 0c0.84,0 1.52,0.68 1.52,1.52l0 0c0,0.83 -0.68,1.52 -1.52,1.52l-1.48 0c-0.84,0 -1.52,-0.69 -1.52,-1.52l0 0c0,-0.84 0.68,-1.52 1.52,-1.52zm1.74 -6.05l0.03 0c0.84,0 1.52,0.68 1.52,1.52l0 0c0,0.84 -0.68,1.52 -1.52,1.52l-0.03 0c-0.84,0 -1.52,-0.68 -1.52,-1.52l0 0c0,-0.84 0.68,-1.52 1.52,-1.52zm3.44 6.05l3.24 0c0.84,0 1.52,0.68 1.52,1.52l0 0c0,0.83 -0.68,1.52 -1.52,1.52l-3.24 0c-0.83,0 -1.52,-0.69 -1.52,-1.52l0 0c0,-0.84 0.69,-1.52 1.52,-1.52zm3.65 -12.09l0.03 0c0.84,0 1.52,0.69 1.52,1.52l0 0c0,0.84 -0.68,1.52 -1.52,1.52l-0.03 0c-0.84,0 -1.52,-0.68 -1.52,-1.52l0 0c0,-0.84 0.68,-1.52 1.52,-1.52zm-4.86 0l1.22 0c0.84,0 1.52,0.69 1.52,1.52l0 0c0,0.84 -0.68,1.52 -1.52,1.52l-1.22 0c-0.83,0 -1.52,-0.68 -1.52,-1.52l0 0c0,-0.84 0.69,-1.52 1.52,-1.52zm0.89 -6.02l0.03 0c0.84,0 1.52,0.69 1.52,1.52l0 0c0,0.84 -0.68,1.52 -1.52,1.52l-0.03 0c-0.84,0 -1.52,-0.68 -1.52,-1.52l0 0c0,-0.83 0.68,-1.52 1.52,-1.52zm3.52 -6.03l4.86 0c0.83,0 1.52,0.69 1.52,1.52l0 0c0,0.84 -0.69,1.52 -1.52,1.52l-4.86 0c-0.84,0 -1.52,-0.68 -1.52,-1.52l0 0c0,-0.84 0.68,-1.52 1.52,-1.52z"/>
  </g>
 </g>
</svg>
