<?xml version="1.0" encoding="UTF-8"?>
<!DOCTYPE svg PUBLIC "-//W3C//DTD SVG 1.1//EN" "http://www.w3.org/Graphics/SVG/1.1/DTD/svg11.dtd">
<!-- Creator: CorelDRAW 2018 -->
<svg xmlns="http://www.w3.org/2000/svg" xml:space="preserve" width="1024px" height="1024px" version="1.1" style="shape-rendering:geometricPrecision; text-rendering:geometricPrecision; image-rendering:optimizeQuality; fill-rule:evenodd; clip-rule:evenodd"
viewBox="0 0 1024 1024"
 xmlns:xlink="http://www.w3.org/1999/xlink">
 <defs>
  <style type="text/css">
   <![CDATA[
    .fil1 {fill:#111317}
    .fil0 {fill:#BF0404}
   ]]>
  </style>
 </defs>
 <g id="Layer_x0020_1">
  <metadata id="CorelCorpID_0Corel-Layer"/>
  <g id="_1180652864">
   <path class="fil0" d="M576.39 321.89l63.91 332.05 114.74 -334.36c6.01,-17.65 10.42,-29.87 13.23,-36.68 2.91,-6.92 7.22,-13.03 12.95,-18.57 5.7,-5.41 13.03,-8.17 22,-8.3 0.58,-0.03 1.16,-0.06 1.75,-0.06l38.35 0c15.74,0 28.63,12.89 28.63,28.63l0 0.01c0,15.74 -12.89,28.63 -28.63,28.63l-7.22 0 -0.01 0.03 -34.41 0c-15.75,0 -28.63,12.89 -28.63,28.63l0 0.01c0,15.74 12.88,28.62 28.63,28.62l15.21 0c12.3,3.22 21.44,14.45 21.44,27.71l0 0c0,15.75 -12.88,28.63 -28.63,28.63l-1.28 0 -12.74 0 -33.17 0c-15.75,0 -28.63,12.89 -28.63,28.63l0 0.01c0,15.74 12.88,28.62 28.63,28.62l24.97 0c12.01,3.4 20.88,14.5 20.88,27.56l0 0.01c0,15.74 -12.88,28.63 -28.63,28.63l-26.04 0 0 0.01 -26.25 0c-15.74,0 -28.63,12.88 -28.63,28.63l0 0c0,15.75 12.89,28.63 28.63,28.63l18.98 0c12.72,2.91 22.28,14.34 22.28,27.91l0 0.01c0,15.15 -11.93,27.65 -26.87,28.57l-44.39 0c-15.75,0 -28.63,12.88 -28.63,28.63l0 0c0,13.46 9.41,24.83 21.98,27.85l-0.12 0.3 1.53 0c1.7,0.32 3.45,0.48 5.24,0.48l20.37 0c13.27,2.48 23.39,14.19 23.39,28.15l0 0c0,15.75 -12.88,28.63 -28.63,28.63l-82.76 0 -0.74 0c-0.51,0 -1,-0.01 -1.5,-0.04 -9.81,-0.35 -17.94,-2.98 -24.48,-7.92 -7.02,-5.31 -12.45,-12.23 -16.38,-20.88 -3.82,-8.76 -7.11,-18.57 -9.66,-29.64 -2.56,-10.96 -5.06,-22.72 -7.52,-35.06l-69.33 -320.99c-1.21,-5.76 -2.42,-11.53 -3.65,-17.18 -1.31,-5.65 -2.22,-11.77 -2.92,-18.23 -0.69,-6.57 -0.82,-12.11 -0.48,-16.6 0.86,-11.42 5.33,-21.92 13.38,-31.38 8.05,-9.46 17.66,-14.18 28.75,-14.18 13.57,0 22.8,5.19 27.6,15.68 4.88,10.5 9.39,27.22 13.51,50.18zm313.18 274.99l71.43 0c15.75,0 28.63,12.89 28.63,28.63l0 0.01c0,15.74 -12.88,28.63 -28.63,28.63l-71.43 0c-15.75,0 -28.63,-12.89 -28.63,-28.63l0 -0.01c0,-15.74 12.88,-28.63 28.63,-28.63zm32.23 -113.82l1.21 0c15.75,0 28.63,12.89 28.63,28.63l0 0.01c0,15.74 -12.88,28.63 -28.63,28.63l-1.21 0c-15.75,0 -28.63,-12.89 -28.63,-28.63l0 -0.01c0,-15.74 12.88,-28.63 28.63,-28.63zm-140.09 227.81l55.2 0c15.75,0 28.63,12.88 28.63,28.63l0 0c0,15.75 -12.88,28.63 -28.63,28.63l-55.2 0c-15.75,0 -28.63,-12.88 -28.63,-28.63l0 0c0,-15.75 12.88,-28.63 28.63,-28.63zm33.2 -113.64l0.68 0c15.75,0 28.63,12.88 28.63,28.63l0 0c0,15.75 -12.88,28.63 -28.63,28.63l-0.68 0c-15.75,0 -28.63,-12.88 -28.63,-28.63l0 0c0,-15.75 12.88,-28.63 28.63,-28.63zm92.69 113.64l87.65 0c15.75,0 28.63,12.88 28.63,28.63l0 0c0,15.75 -12.88,28.63 -28.63,28.63l-87.65 0c-15.75,0 -28.63,-12.88 -28.63,-28.63l0 0c0,-15.75 12.88,-28.63 28.63,-28.63zm-58.41 -227.81l1.22 0c15.74,0 28.62,12.89 28.62,28.63l0 0.01c0,15.74 -12.88,28.63 -28.62,28.63l-1.22 0c-15.75,0 -28.63,-12.89 -28.63,-28.63l0 -0.01c0,-15.74 12.88,-28.63 28.63,-28.63zm31.2 -113.45l0.69 0c15.74,0 28.63,12.88 28.63,28.63l0 0c0,15.75 -12.89,28.63 -28.63,28.63l-0.69 0c-15.75,0 -28.63,-12.88 -28.63,-28.63l0 0c0,-15.75 12.88,-28.63 28.63,-28.63z"/>
   <path class="fil1" d="M284.45 681.61l-41.18 -296.91 -86.96 296.91c-6.76,22.61 -11.92,38.76 -15.6,48.57 -3.67,9.69 -9.57,18.57 -17.49,26.3 -7.91,7.73 -17.93,11.65 -30.12,11.65 -9.9,0 -17.79,-2.31 -23.76,-6.92 -6.07,-4.62 -10.71,-11.19 -14.01,-19.61 -3.3,-8.42 -5.75,-18.46 -7.34,-30.11 -1.69,-11.53 -3.08,-22.26 -4.34,-32.18l-40.15 -333.48c-2.47,-19.38 -3.37,-34.14 -2.6,-44.29 0.97,-12.81 5.37,-23.65 13.18,-32.41 7.82,-8.77 17.04,-13.16 27.58,-13.16 14.57,0 23.84,5.89 28,17.54 4.06,11.76 7.17,28.72 9.23,51.1l29.67 289.18 78.28 -270.61c5.88,-20.76 10.93,-36.57 15.14,-47.29 4.21,-10.85 10.51,-20.19 18.8,-28.03 8.31,-7.96 19.05,-11.89 32.25,-11.89 13.48,0 23.61,4.16 30.42,12.35 6.8,8.19 11.25,17.18 13.36,26.87 2.1,9.69 4.74,25.61 7.91,47.99l37.77 270.61 73.54 -289.18c3.62,-15.11 6.9,-26.99 9.75,-35.53 2.94,-8.53 7.38,-16.26 13.29,-22.95 6.02,-6.81 14.15,-10.16 24.6,-10.16l0.69 0.01 0.55 -0.01 73.28 0c15.75,0 28.63,12.89 28.63,28.63l0 0.01c0,15.74 -12.89,28.63 -28.63,28.63l-42.26 0 -0.01 0.03 -10.44 0c-15.74,0 -28.63,12.89 -28.63,28.63l0 0.01c0,15.08 11.82,27.53 26.66,28.55 12.43,3.12 21.7,14.42 21.7,27.78l0 0c0,15.75 -12.88,28.63 -28.63,28.63l-10.36 0 -10.23 0c-15.75,0 -28.63,12.89 -28.63,28.63l0 0.01c0,15.74 12.88,28.62 28.63,28.62l10.4 0c12.02,3.4 20.89,14.5 20.89,27.56l0 0.01c0,15.74 -12.89,28.63 -28.63,28.63l-23.33 0 0 0.01 -13.94 0c-15.75,0 -28.63,12.88 -28.63,28.63l0 0c0,15.75 12.88,28.63 28.63,28.63l1.88 0c12.72,2.9 22.29,14.34 22.29,27.91l0 0.01c0,15.4 -12.32,28.05 -27.59,28.6 -0.47,-0.02 -0.94,-0.03 -1.41,-0.03l-28.32 0c-15.75,0 -28.63,12.88 -28.63,28.63l0 0c0,15.75 12.88,28.63 28.63,28.63l1.26 0c13.27,2.48 23.4,14.18 23.4,28.15l0 0c0,15.75 -12.88,28.63 -28.63,28.63l-49.72 0 -1.35 0c-1.15,0 -2.29,-0.07 -3.42,-0.21 -9.91,-0.88 -17.76,-4.64 -23.6,-11.33 -6.75,-7.61 -11.23,-16.26 -13.34,-25.84 -2.21,-9.57 -4.91,-25.95 -8.38,-49.14zm167.61 29.26l28.03 0c15.75,0 28.63,12.88 28.63,28.63l0 0c0,15.75 -12.88,28.63 -28.63,28.63l-28.03 0c-15.75,0 -28.63,-12.88 -28.63,-28.63l0 0c0,-15.75 12.88,-28.63 28.63,-28.63zm32.79 -113.99l0.68 0c15.75,0 28.63,12.89 28.63,28.63l0 0.01c0,15.74 -12.88,28.63 -28.63,28.63l-0.68 0c-15.75,0 -28.63,-12.89 -28.63,-28.63l0 -0.01c0,-15.74 12.88,-28.63 28.63,-28.63zm64.92 113.99l61.02 0c15.75,0 28.63,12.88 28.63,28.63l0 0c0,15.75 -12.88,28.63 -28.63,28.63l-61.02 0c-15.74,0 -28.63,-12.88 -28.63,-28.63l0 0c0,-15.75 12.89,-28.63 28.63,-28.63zm68.67 -227.81l0.68 0c15.75,0 28.63,12.89 28.63,28.63l0 0.01c0,15.74 -12.89,28.63 -28.63,28.63l-0.68 0c-15.74,0 -28.63,-12.89 -28.63,-28.63l0 -0.01c0,-15.74 12.88,-28.63 28.63,-28.63zm-91.46 0l22.97 0c15.74,0 28.63,12.89 28.63,28.63l0 0.01c0,15.74 -12.89,28.63 -28.63,28.63l-22.97 0c-15.74,0 -28.63,-12.89 -28.63,-28.63l0 -0.01c0,-15.74 12.88,-28.63 28.63,-28.63zm16.63 -113.45l0.69 0c15.74,0 28.63,12.89 28.63,28.63l0 0.01c0,15.74 -12.89,28.63 -28.63,28.63l-0.69 0c-15.74,0 -28.63,-12.89 -28.63,-28.63l0 -0.01c0,-15.74 12.89,-28.63 28.63,-28.63zm66.34 -113.64l91.62 0c15.74,0 28.63,12.89 28.63,28.63l0 0.01c0,15.74 -12.89,28.63 -28.63,28.63l-91.62 0c-15.74,0 -28.63,-12.89 -28.63,-28.63l0 -0.01c0,-15.74 12.88,-28.63 28.63,-28.63z"/>
  </g>
 </g>
</svg>
