<?xml version="1.0" encoding="UTF-8"?>
<!DOCTYPE svg PUBLIC "-//W3C//DTD SVG 1.1//EN" "http://www.w3.org/Graphics/SVG/1.1/DTD/svg11.dtd">
<!-- Creator: CorelDRAW 2018 -->
<svg xmlns="http://www.w3.org/2000/svg" xml:space="preserve" width="192px" height="192px" version="1.1" style="shape-rendering:geometricPrecision; text-rendering:geometricPrecision; image-rendering:optimizeQuality; fill-rule:evenodd; clip-rule:evenodd"
viewBox="0 0 192 192"
 xmlns:xlink="http://www.w3.org/1999/xlink">
 <defs>
  <style type="text/css">
   <![CDATA[
    .fil1 {fill:#111317}
    .fil0 {fill:#BF0404}
   ]]>
  </style>
 </defs>
 <g id="Layer_x0020_1">
  <metadata id="CorelCorpID_0Corel-Layer"/>
  <g id="_1187105528">
   <path class="fil0" d="M107.96 60.61l11.91 61.86 21.37 -62.29c1.12,-3.28 1.94,-5.56 2.47,-6.83 0.54,-1.29 1.34,-2.43 2.41,-3.46 1.06,-1.01 2.43,-1.52 4.1,-1.54 0.1,-0.01 0.21,-0.02 0.32,-0.02l7.15 0c2.93,0 5.33,2.4 5.33,5.34l0 0c0,2.93 -2.4,5.33 -5.33,5.33l-1.35 0 0 0.01 -6.41 0c-2.93,0 -5.33,2.4 -5.33,5.33l0 0c0,2.94 2.4,5.33 5.33,5.33l2.83 0c2.29,0.6 4,2.69 4,5.17l0 0c0,2.93 -2.4,5.33 -5.34,5.33l-0.23 0 -2.38 0 -6.18 0c-2.93,0 -5.33,2.4 -5.33,5.33l0 0c0,2.94 2.4,5.33 5.33,5.33l4.65 0c2.24,0.64 3.89,2.71 3.89,5.14l0 0c0,2.93 -2.4,5.33 -5.33,5.33l-4.85 0 0 0 -4.89 0c-2.93,0 -5.33,2.4 -5.33,5.34l0 0c0,2.93 2.4,5.33 5.33,5.33l3.54 0c2.36,0.54 4.15,2.67 4.15,5.2l0 0c0,2.82 -2.23,5.15 -5.01,5.32l-8.27 0c-2.93,0 -5.33,2.4 -5.33,5.34l0 0c0,2.5 1.75,4.62 4.09,5.18l-0.02 0.06 0.29 0c0.31,0.06 0.64,0.09 0.97,0.09l3.8 0c2.47,0.46 4.35,2.64 4.35,5.24l0 0c0,2.94 -2.39,5.34 -5.33,5.34l-15.42 0 -0.13 0c-0.1,0 -0.19,-0.01 -0.28,-0.01 -1.83,-0.07 -3.35,-0.56 -4.56,-1.48 -1.31,-0.98 -2.32,-2.27 -3.05,-3.89 -0.72,-1.63 -1.33,-3.45 -1.8,-5.52 -0.48,-2.04 -0.95,-4.23 -1.4,-6.53l-12.92 -59.79c-0.22,-1.07 -0.45,-2.15 -0.68,-3.2 -0.24,-1.05 -0.41,-2.19 -0.54,-3.39 -0.13,-1.23 -0.15,-2.26 -0.09,-3.1 0.16,-2.13 0.99,-4.08 2.49,-5.84 1.5,-1.76 3.29,-2.65 5.36,-2.65 2.52,0 4.24,0.97 5.14,2.93 0.91,1.95 1.75,5.07 2.51,9.34zm58.34 51.23l13.31 0c2.93,0 5.33,2.4 5.33,5.33l0 0c0,2.93 -2.4,5.33 -5.33,5.33l-13.31 0c-2.93,0 -5.33,-2.4 -5.33,-5.33l0 0c0,-2.93 2.4,-5.33 5.33,-5.33zm6 -21.2l0.23 0c2.93,0 5.33,2.4 5.33,5.33l0 0c0,2.93 -2.4,5.33 -5.33,5.33l-0.23 0c-2.93,0 -5.33,-2.4 -5.33,-5.33l0 0c0,-2.93 2.4,-5.33 5.33,-5.33zm-26.09 42.43l10.28 0c2.94,0 5.34,2.4 5.34,5.33l0 0c0,2.94 -2.4,5.34 -5.34,5.34l-10.28 0c-2.93,0 -5.33,-2.4 -5.33,-5.34l0 0c0,-2.93 2.4,-5.33 5.33,-5.33zm6.18 -21.17l0.13 0c2.94,0 5.33,2.4 5.33,5.34l0 0c0,2.93 -2.39,5.33 -5.33,5.33l-0.13 0c-2.93,0 -5.33,-2.4 -5.33,-5.33l0 0c0,-2.94 2.4,-5.34 5.33,-5.34zm17.27 21.17l16.33 0c2.93,0 5.33,2.4 5.33,5.33l0 0c0,2.94 -2.4,5.34 -5.33,5.34l-16.33 0c-2.93,0 -5.33,-2.4 -5.33,-5.34l0 0c0,-2.93 2.4,-5.33 5.33,-5.33zm-10.88 -42.43l0.23 0c2.93,0 5.33,2.4 5.33,5.33l0 0c0,2.93 -2.4,5.33 -5.33,5.33l-0.23 0c-2.93,0 -5.33,-2.4 -5.33,-5.33l0 0c0,-2.93 2.4,-5.33 5.33,-5.33zm5.81 -21.14l0.13 0c2.93,0 5.33,2.4 5.33,5.34l0 0c0,2.93 -2.4,5.33 -5.33,5.33l-0.13 0c-2.93,0 -5.33,-2.4 -5.33,-5.33l0 0c0,-2.94 2.4,-5.34 5.33,-5.34z"/>
   <path class="fil1" d="M53.58 127.62l-7.67 -55.31 -16.2 55.31c-1.25,4.21 -2.22,7.22 -2.9,9.05 -0.68,1.8 -1.78,3.46 -3.26,4.9 -1.47,1.43 -3.34,2.17 -5.61,2.17 -1.84,0 -3.31,-0.43 -4.43,-1.29 -1.13,-0.86 -1.99,-2.09 -2.6,-3.66 -0.62,-1.56 -1.08,-3.43 -1.37,-5.6 -0.32,-2.15 -0.58,-4.15 -0.81,-6l-7.48 -62.12c-0.46,-3.61 -0.63,-6.36 -0.48,-8.25 0.18,-2.38 0.99,-4.4 2.45,-6.04 1.46,-1.63 3.17,-2.45 5.14,-2.45 2.71,0 4.44,1.1 5.21,3.27 0.76,2.19 1.34,5.35 1.72,9.52l5.53 53.87 14.58 -50.41c1.1,-3.87 2.04,-6.81 2.82,-8.81 0.79,-2.02 1.96,-3.76 3.5,-5.22 1.55,-1.48 3.55,-2.22 6.01,-2.22 2.51,0 4.4,0.78 5.67,2.3 1.26,1.53 2.09,3.21 2.48,5.01 0.4,1.81 0.89,4.77 1.48,8.94l7.03 50.41 13.7 -53.87c0.68,-2.82 1.29,-5.03 1.82,-6.62 0.55,-1.59 1.37,-3.03 2.48,-4.27 1.12,-1.27 2.63,-1.9 4.58,-1.9l0.13 0.01 0.1 -0.01 13.65 0c2.93,0 5.33,2.41 5.33,5.34l0 0c0,2.93 -2.4,5.33 -5.33,5.33l-7.87 0 0 0.01 -1.95 0c-2.93,0 -5.33,2.4 -5.33,5.33l0 0c0,2.81 2.2,5.13 4.96,5.32 2.32,0.58 4.05,2.69 4.05,5.18l0 0c0,2.93 -2.4,5.33 -5.34,5.33l-1.93 0 -1.9 0c-2.94,0 -5.34,2.4 -5.34,5.33l0 0c0,2.94 2.4,5.33 5.34,5.33l1.93 0c2.24,0.64 3.89,2.71 3.89,5.14l0 0c0,2.93 -2.39,5.33 -5.33,5.33l-4.34 0 0 0 -2.6 0c-2.93,0 -5.33,2.4 -5.33,5.34l0 0c0,2.93 2.4,5.33 5.33,5.33l0.35 0c2.37,0.54 4.15,2.67 4.15,5.2l0 0c0,2.87 -2.29,5.23 -5.14,5.33 -0.08,-0.01 -0.17,-0.01 -0.26,-0.01l-5.27 0c-2.94,0 -5.34,2.4 -5.34,5.34l0 0c0,2.93 2.4,5.33 5.34,5.33l0.23 0c2.47,0.46 4.36,2.64 4.36,5.24l0 0c0,2.94 -2.4,5.34 -5.33,5.34l-9.27 0 -0.25 0c-0.21,0 -0.42,-0.02 -0.63,-0.04 -1.85,-0.17 -3.31,-0.87 -4.4,-2.11 -1.26,-1.42 -2.09,-3.03 -2.49,-4.82 -0.41,-1.78 -0.91,-4.83 -1.56,-9.15zm31.23 5.45l5.22 0c2.93,0 5.33,2.4 5.33,5.33l0 0c0,2.94 -2.4,5.34 -5.33,5.34l-5.22 0c-2.94,0 -5.34,-2.4 -5.34,-5.34l0 0c0,-2.93 2.4,-5.33 5.34,-5.33zm6.1 -21.23l0.13 0c2.93,0 5.33,2.4 5.33,5.33l0 0c0,2.93 -2.4,5.33 -5.33,5.33l-0.13 0c-2.93,0 -5.33,-2.4 -5.33,-5.33l0 0c0,-2.93 2.4,-5.33 5.33,-5.33zm12.1 21.23l11.36 0c2.93,0 5.34,2.4 5.34,5.33l0 0c0,2.94 -2.41,5.34 -5.34,5.34l-11.36 0c-2.94,0 -5.34,-2.4 -5.34,-5.34l0 0c0,-2.93 2.4,-5.33 5.34,-5.33zm12.79 -42.43l0.12 0c2.94,0 5.34,2.4 5.34,5.33l0 0c0,2.93 -2.4,5.33 -5.34,5.33l-0.12 0c-2.94,0 -5.34,-2.4 -5.34,-5.33l0 0c0,-2.93 2.4,-5.33 5.34,-5.33zm-17.04 0l4.28 0c2.93,0 5.33,2.4 5.33,5.33l0 0c0,2.93 -2.4,5.33 -5.33,5.33l-4.28 0c-2.93,0 -5.33,-2.4 -5.33,-5.33l0 0c0,-2.93 2.4,-5.33 5.33,-5.33zm3.1 -21.14l0.13 0c2.93,0 5.33,2.4 5.33,5.34l0 0c0,2.93 -2.4,5.33 -5.33,5.33l-0.13 0c-2.93,0 -5.33,-2.4 -5.33,-5.33l0 0c0,-2.94 2.4,-5.34 5.33,-5.34zm12.36 -21.17l17.06 0c2.94,0 5.33,2.41 5.33,5.34l0 0c0,2.93 -2.4,5.33 -5.33,5.33l-17.06 0c-2.94,0 -5.34,-2.4 -5.34,-5.33l0 0c0,-2.94 2.4,-5.34 5.34,-5.34z"/>
  </g>
 </g>
</svg>
