<?xml version="1.0" encoding="UTF-8"?>
<!DOCTYPE svg PUBLIC "-//W3C//DTD SVG 1.1//EN" "http://www.w3.org/Graphics/SVG/1.1/DTD/svg11.dtd">
<!-- Creator: CorelDRAW 2018 -->
<svg xmlns="http://www.w3.org/2000/svg" xml:space="preserve" width="512px" height="512px" version="1.1" style="shape-rendering:geometricPrecision; text-rendering:geometricPrecision; image-rendering:optimizeQuality; fill-rule:evenodd; clip-rule:evenodd"
viewBox="0 0 512 512"
 xmlns:xlink="http://www.w3.org/1999/xlink">
 <defs>
  <style type="text/css">
   <![CDATA[
    .fil1 {fill:#111317}
    .fil0 {fill:#BF0404}
   ]]>
  </style>
 </defs>
 <g id="Layer_x0020_1">
  <metadata id="CorelCorpID_0Corel-Layer"/>
  <g id="_1180663592">
   <path class="fil0" d="M288.16 160.97l31.95 166 57.35 -167.15c3.01,-8.82 5.21,-14.93 6.62,-18.34 1.45,-3.46 3.61,-6.51 6.47,-9.28 2.85,-2.7 6.51,-4.09 11,-4.15 0.29,-0.02 0.58,-0.03 0.88,-0.03l19.16 0c7.88,0 14.31,6.44 14.31,14.32l0 0c0,7.87 -6.43,14.31 -14.31,14.31l-3.6 0 -0.01 0.02 -17.2 0c-7.87,0 -14.31,6.44 -14.31,14.31l0 0c0,7.87 6.44,14.31 14.31,14.31l7.61 0c6.14,1.61 10.71,7.22 10.71,13.85l0 0c0,7.87 -6.44,14.31 -14.31,14.31l-0.64 0 -6.37 0 -16.58 0c-7.87,0 -14.31,6.44 -14.31,14.32l0 0c0,7.87 6.44,14.31 14.31,14.31l12.48 0c6.01,1.7 10.44,7.24 10.44,13.78l0 0c0,7.87 -6.44,14.31 -14.31,14.31l-13.02 0 0 0 -13.12 0c-7.87,0 -14.31,6.45 -14.31,14.32l0 0c0,7.87 6.44,14.31 14.31,14.31l9.48 0c6.36,1.45 11.14,7.17 11.14,13.95l0 0.01c0,7.57 -5.96,13.82 -13.43,14.28l-22.19 0c-7.87,0 -14.31,6.44 -14.31,14.31l0 0c0,6.73 4.7,12.41 10.99,13.92l-0.06 0.15 0.76 0c0.85,0.16 1.72,0.25 2.62,0.25l10.18 0c6.64,1.23 11.7,7.09 11.7,14.06l0 0.01c0,7.87 -6.44,14.31 -14.31,14.31l-41.38 0 -0.37 0c-0.25,0 -0.5,-0.01 -0.75,-0.02 -4.9,-0.18 -8.97,-1.49 -12.23,-3.96 -3.51,-2.65 -6.23,-6.11 -8.19,-10.44 -1.92,-4.38 -3.56,-9.28 -4.83,-14.82 -1.29,-5.47 -2.53,-11.35 -3.76,-17.52l-34.66 -160.46c-0.61,-2.88 -1.21,-5.77 -1.82,-8.59 -0.66,-2.83 -1.11,-5.88 -1.46,-9.11 -0.35,-3.29 -0.42,-6.06 -0.25,-8.31 0.44,-5.7 2.67,-10.95 6.69,-15.68 4.03,-4.73 8.83,-7.09 14.38,-7.09 6.78,0 11.4,2.59 13.79,7.84 2.45,5.25 4.7,13.61 6.76,25.08zm156.55 137.47l35.71 0c7.87,0 14.31,6.44 14.31,14.31l0 0.01c0,7.87 -6.44,14.31 -14.31,14.31l-35.71 0c-7.87,0 -14.31,-6.44 -14.31,-14.31l0 -0.01c0,-7.87 6.44,-14.31 14.31,-14.31zm16.11 -56.9l0.61 0c7.87,0 14.31,6.44 14.31,14.32l0 0c0,7.87 -6.44,14.31 -14.31,14.31l-0.61 0c-7.87,0 -14.31,-6.44 -14.31,-14.31l0 0c0,-7.88 6.44,-14.32 14.31,-14.32zm-70.02 113.88l27.59 0c7.87,0 14.31,6.44 14.31,14.31l0 0.01c0,7.87 -6.44,14.31 -14.31,14.31l-27.59 0c-7.87,0 -14.31,-6.44 -14.31,-14.31l0 -0.01c0,-7.87 6.44,-14.31 14.31,-14.31zm16.59 -56.8l0.34 0c7.88,0 14.32,6.44 14.32,14.31l0 0c0,7.87 -6.44,14.31 -14.32,14.31l-0.34 0c-7.87,0 -14.31,-6.44 -14.31,-14.31l0 0c0,-7.87 6.44,-14.31 14.31,-14.31zm46.34 56.8l43.81 0c7.88,0 14.32,6.44 14.32,14.31l0 0.01c0,7.87 -6.44,14.31 -14.32,14.31l-43.81 0c-7.88,0 -14.31,-6.44 -14.31,-14.31l0 -0.01c0,-7.87 6.43,-14.31 14.31,-14.31zm-29.2 -113.88l0.61 0c7.87,0 14.31,6.44 14.31,14.32l0 0c0,7.87 -6.44,14.31 -14.31,14.31l-0.61 0c-7.87,0 -14.31,-6.44 -14.31,-14.31l0 0c0,-7.88 6.44,-14.32 14.31,-14.32zm15.6 -56.71l0.34 0c7.87,0 14.31,6.44 14.31,14.31l0 0c0,7.87 -6.44,14.31 -14.31,14.31l-0.34 0c-7.87,0 -14.32,-6.44 -14.32,-14.31l0 0c0,-7.87 6.45,-14.31 14.32,-14.31z"/>
   <path class="fil1" d="M142.22 340.8l-20.59 -148.42 -43.47 148.42c-3.38,11.3 -5.96,19.37 -7.8,24.28 -1.83,4.84 -4.78,9.28 -8.74,13.14 -3.96,3.87 -8.96,5.83 -15.06,5.83 -4.95,0 -8.89,-1.16 -11.88,-3.46 -3.03,-2.31 -5.35,-5.6 -7,-9.81 -1.65,-4.2 -2.87,-9.22 -3.67,-15.05 -0.84,-5.76 -1.54,-11.12 -2.17,-16.08l-20.07 -166.71c-1.23,-9.68 -1.68,-17.06 -1.3,-22.14 0.49,-6.4 2.68,-11.82 6.59,-16.2 3.91,-4.39 8.52,-6.58 13.79,-6.58 7.28,0 11.92,2.94 14,8.77 2.02,5.88 3.58,14.36 4.61,25.54l14.83 144.56 39.13 -135.27c2.94,-10.38 5.47,-18.28 7.57,-23.65 2.11,-5.42 5.26,-10.09 9.4,-14.01 4.15,-3.98 9.52,-5.94 16.12,-5.94 6.74,0 11.8,2.08 15.21,6.17 3.4,4.1 5.62,8.6 6.67,13.44 1.06,4.84 2.38,12.8 3.96,23.99l18.88 135.27 36.76 -144.56c1.81,-7.55 3.46,-13.49 4.88,-17.76 1.47,-4.26 3.69,-8.13 6.64,-11.47 3.01,-3.4 7.08,-5.08 12.3,-5.08l0.34 0.01 0.28 -0.01 36.63 0c7.87,0 14.31,6.45 14.31,14.32l0 0c0,7.87 -6.44,14.31 -14.31,14.31l-21.13 0 0 0.02 -5.22 0c-7.87,0 -14.31,6.44 -14.31,14.31l0 0c0,7.54 5.91,13.76 13.33,14.28 6.21,1.55 10.85,7.2 10.85,13.88l0 0c0,7.87 -6.44,14.31 -14.32,14.31l-5.17 0 -5.12 0c-7.87,0 -14.31,6.44 -14.31,14.32l0 0c0,7.87 6.44,14.31 14.31,14.31l5.2 0c6.01,1.7 10.44,7.24 10.44,13.78l0 0c0,7.87 -6.44,14.31 -14.31,14.31l-11.66 0 0 0 -6.97 0c-7.87,0 -14.31,6.45 -14.31,14.32l0 0c0,7.87 6.44,14.31 14.31,14.31l0.94 0c6.36,1.45 11.14,7.17 11.14,13.95l0 0.01c0,7.69 -6.16,14.02 -13.79,14.3 -0.23,-0.02 -0.47,-0.02 -0.71,-0.02l-14.15 0c-7.88,0 -14.32,6.44 -14.32,14.31l0 0c0,7.87 6.44,14.32 14.32,14.32l0.63 0c6.63,1.23 11.69,7.08 11.69,14.06l0 0.01c0,7.87 -6.44,14.31 -14.31,14.31l-24.85 0 -0.68 0c-0.57,0 -1.14,-0.04 -1.7,-0.11 -4.96,-0.44 -8.88,-2.32 -11.8,-5.66 -3.38,-3.81 -5.62,-8.13 -6.67,-12.92 -1.11,-4.78 -2.46,-12.97 -4.19,-24.56zm83.79 14.62l14.01 0c7.87,0 14.31,6.44 14.31,14.31l0 0.01c0,7.87 -6.44,14.31 -14.31,14.31l-14.01 0c-7.88,0 -14.32,-6.44 -14.32,-14.31l0 -0.01c0,-7.87 6.44,-14.31 14.32,-14.31zm16.38 -56.98l0.35 0c7.87,0 14.31,6.44 14.31,14.31l0 0.01c0,7.87 -6.44,14.31 -14.31,14.31l-0.35 0c-7.87,0 -14.31,-6.44 -14.31,-14.31l0 -0.01c0,-7.87 6.44,-14.31 14.31,-14.31zm32.46 56.98l30.5 0c7.88,0 14.32,6.44 14.32,14.31l0 0.01c0,7.87 -6.44,14.31 -14.32,14.31l-30.5 0c-7.87,0 -14.31,-6.44 -14.31,-14.31l0 -0.01c0,-7.87 6.44,-14.31 14.31,-14.31zm34.33 -113.88l0.34 0c7.87,0 14.31,6.45 14.31,14.32l0 0c0,7.87 -6.44,14.31 -14.31,14.31l-0.34 0c-7.87,0 -14.32,-6.44 -14.32,-14.31l0 0c0,-7.88 6.44,-14.32 14.32,-14.32zm-45.72 0l11.48 0c7.87,0 14.31,6.45 14.31,14.32l0 0c0,7.87 -6.44,14.31 -14.31,14.31l-11.48 0c-7.87,0 -14.31,-6.44 -14.31,-14.31l0 0c0,-7.88 6.44,-14.32 14.31,-14.32zm8.31 -56.71l0.34 0c7.88,0 14.32,6.44 14.32,14.31l0 0c0,7.87 -6.45,14.32 -14.32,14.32l-0.34 0c-7.87,0 -14.31,-6.44 -14.31,-14.32l0 0c0,-7.87 6.44,-14.31 14.31,-14.31zm33.16 -56.81l45.8 0c7.88,0 14.31,6.45 14.31,14.32l0 0c0,7.87 -6.44,14.31 -14.31,14.31l-45.8 0c-7.86,0 -14.31,-6.44 -14.31,-14.31l0 0c0,-7.88 6.44,-14.32 14.31,-14.32z"/>
  </g>
 </g>
</svg>
